<svg width="78.726440" height="36" viewBox="0 0 78.7264 35.9884" fill="none" xmlns="http://www.w3.org/2000/svg" xmlns:xlink="http://www.w3.org/1999/xlink">
	<desc>
			Created with Pixso.
	</desc>
	<defs/>
	<path id="bilibili" d="M73.1 32.11C72.75 32.11 72.45 32.14 72.15 32.1C71.56 32.04 70.96 32.05 70.36 32.03C69.98 32.02 69.99 32.02 69.95 31.65C69.86 30.51 69.75 29.37 69.65 28.23C69.56 27.23 69.48 26.23 69.38 25.23C69.29 24.32 69.18 23.4 69.09 22.49C69 21.63 68.91 20.77 68.81 19.91C68.69 18.83 68.57 17.75 68.44 16.67C68.32 15.72 68.21 14.76 68.08 13.81C67.88 12.33 67.67 10.86 67.46 9.38C67.24 7.81 66.97 6.24 66.69 4.68C66.64 4.4 66.64 4.39 66.91 4.35C68.02 4.16 69.14 3.99 70.28 4.02C70.4 4.02 70.52 4.02 70.64 4.04C70.84 4.07 70.95 4.16 70.96 4.39C71 5.2 71.05 6.01 71.11 6.82C71.21 8.14 71.31 9.46 71.41 10.78C71.47 11.63 71.53 12.48 71.59 13.32C71.69 14.69 71.8 16.05 71.91 17.41C71.97 18.25 72.02 19.08 72.09 19.92C72.19 21.14 72.29 22.36 72.39 23.58C72.45 24.36 72.51 25.14 72.58 25.92C72.67 27.07 72.78 28.23 72.88 29.38C72.96 30.28 73.02 31.18 73.1 32.11ZM29.99 4.03C30.16 4.03 30.4 4.01 30.65 4.04C30.96 4.06 31.02 4.14 31.03 4.45C31.12 5.87 31.21 7.29 31.3 8.71C31.4 10.25 31.52 11.78 31.63 13.31C31.74 14.71 31.84 16.12 31.95 17.52C32.08 19.06 32.21 20.6 32.34 22.15C32.43 23.33 32.51 24.51 32.61 25.69C32.7 26.79 32.81 27.89 32.91 28.98C32.99 29.93 33.08 30.87 33.16 31.82C33.18 32.12 33.16 32.14 32.84 32.13C31.99 32.11 31.15 32.01 30.31 32.03C30.12 32.04 30.06 31.95 30.03 31.77C29.96 31.37 29.97 30.96 29.93 30.56C29.81 29.49 29.74 28.42 29.65 27.35C29.56 26.38 29.45 25.41 29.35 24.44C29.26 23.55 29.18 22.66 29.08 21.77C28.99 20.9 28.89 20.03 28.79 19.16C28.7 18.35 28.61 17.55 28.51 16.75C28.37 15.57 28.23 14.39 28.07 13.22C27.93 12.14 27.77 11.07 27.61 9.99C27.41 8.53 27.17 7.07 26.92 5.62C26.86 5.29 26.8 4.96 26.73 4.63C26.7 4.47 26.73 4.37 26.92 4.35C27.41 4.28 27.91 4.18 28.41 4.13C28.91 4.08 29.41 3.99 29.99 4.03ZM65.36 18.21C66.32 18.21 66.34 18.22 66.49 19.07C66.68 20.13 66.81 21.2 66.94 22.26C67.07 23.4 67.2 24.53 67.32 25.67C67.42 26.58 67.5 27.5 67.59 28.41C67.69 29.37 67.79 30.32 67.89 31.28C67.95 31.82 68 32.36 68.06 32.9C68.08 33.06 68.03 33.14 67.88 33.16C67.55 33.2 67.23 33.24 66.91 33.28C66.31 33.34 65.72 33.4 65.12 33.46C64.82 33.49 64.8 33.47 64.74 33.17C64.22 30.48 63.69 27.79 63.18 25.09C62.83 23.3 62.5 21.51 62.16 19.72C62.11 19.47 62.07 19.22 62.03 18.98C62.01 18.83 62.05 18.74 62.21 18.7C63.28 18.45 64.36 18.26 65.36 18.21ZM25.39 18.21C26.41 18.21 26.4 18.21 26.56 19.14C26.8 20.57 26.97 22.01 27.13 23.45C27.28 24.85 27.44 26.24 27.59 27.64C27.69 28.6 27.77 29.56 27.86 30.52C27.93 31.2 28.01 31.87 28.08 32.55C28.09 32.64 28.09 32.72 28.1 32.8C28.11 33.14 28.1 33.16 27.78 33.2C27.14 33.26 26.51 33.32 25.87 33.38C25.64 33.4 25.41 33.44 25.18 33.46C24.88 33.49 24.87 33.49 24.81 33.18C24.6 32.1 24.39 31.02 24.18 29.94C23.68 27.34 23.17 24.75 22.67 22.15C22.47 21.11 22.3 20.07 22.11 19.03C22.07 18.84 22.1 18.75 22.3 18.7C23.36 18.45 24.43 18.26 25.39 18.21ZM38.82 29.11L38.82 33.47C38.82 33.51 38.82 33.55 38.82 33.59C38.85 33.8 38.77 33.9 38.55 33.89C38.26 33.87 37.98 33.88 37.69 33.89C37.09 33.9 36.49 33.88 35.9 33.95C35.57 33.98 35.57 33.96 35.54 33.62C35.44 32.52 35.34 31.42 35.24 30.32C35.14 29.31 35.06 28.29 34.97 27.28C34.87 26.24 34.76 25.2 34.67 24.16C34.6 23.46 34.54 22.77 34.48 22.07C34.41 21.17 34.34 20.27 34.26 19.36C34.22 18.98 34.25 18.93 34.63 18.89C35.6 18.78 36.58 18.75 37.56 18.8C37.81 18.81 38.05 18.86 38.29 18.91C38.59 18.99 38.62 19.03 38.63 19.34C38.67 19.97 38.7 20.6 38.72 21.22C38.74 21.92 38.72 22.62 38.75 23.32C38.81 25.25 38.8 27.18 38.82 29.11ZM78.72 29.3L78.72 33.43C78.72 33.5 78.72 33.57 78.72 33.64C78.73 33.82 78.65 33.89 78.48 33.89C78.06 33.88 77.63 33.89 77.21 33.89C76.73 33.9 76.26 33.89 75.78 33.95C75.47 33.98 75.47 33.96 75.44 33.65C75.31 32.22 75.17 30.79 75.04 29.36C74.92 28.04 74.81 26.72 74.69 25.4C74.57 24.03 74.43 22.68 74.31 21.31C74.25 20.63 74.2 19.95 74.15 19.27C74.13 18.97 74.16 18.92 74.49 18.89C75.08 18.85 75.66 18.77 76.24 18.78C76.83 18.79 77.42 18.76 78 18.87C78.49 18.96 78.51 18.99 78.54 19.52C78.63 21.07 78.6 22.62 78.66 24.17C78.71 25.82 78.67 27.47 78.72 29.3ZM64.37 10.72C64.72 10.74 64.99 10.72 65.26 10.78C65.43 10.82 65.51 10.9 65.53 11.08C65.61 11.97 65.7 12.86 65.79 13.75C65.86 14.47 65.94 15.19 66.01 15.91L66.02 15.95C66.07 16.41 66.06 16.42 65.62 16.44C65.22 16.46 64.83 16.5 64.44 16.52C64.18 16.54 64.1 16.58 64.06 16.21C63.91 14.88 63.74 13.55 63.57 12.22C63.53 11.85 63.48 11.48 63.42 11.1C63.39 10.89 63.47 10.78 63.67 10.76C63.93 10.74 64.19 10.73 64.37 10.72ZM24.53 10.72C24.79 10.74 25.06 10.72 25.33 10.78C25.48 10.82 25.56 10.88 25.58 11.05C25.61 11.47 25.67 11.89 25.71 12.3C25.84 13.58 25.96 14.86 26.07 16.13C26.1 16.41 26.09 16.42 25.83 16.44C25.37 16.47 24.91 16.5 24.45 16.52C24.18 16.53 24.14 16.5 24.11 16.23C23.99 15.29 23.88 14.35 23.77 13.4C23.68 12.63 23.6 11.85 23.49 11.08C23.46 10.87 23.53 10.81 23.7 10.77C23.97 10.72 24.25 10.73 24.53 10.72ZM38.56 14.24C38.56 15.05 38.56 15.86 38.56 16.67C38.56 17.03 38.55 17.03 38.19 17.03C37.76 17.03 37.32 17.01 36.89 16.96C36.61 16.93 36.61 16.93 36.6 16.64C36.57 15.65 36.54 14.66 36.52 13.67C36.51 13 36.5 12.34 36.46 11.67C36.44 11.32 36.46 11.32 36.79 11.31C37.28 11.31 37.76 11.33 38.25 11.41C38.54 11.45 38.56 11.45 38.56 11.77C38.56 12.6 38.56 13.42 38.56 14.24ZM78.47 14.26C78.47 15.07 78.48 15.88 78.47 16.69C78.47 17.03 78.47 17.03 78.13 17.03C77.68 17.02 77.23 17 76.79 16.97C76.56 16.95 76.5 16.86 76.51 16.65C76.52 16.63 76.51 16.6 76.51 16.57C76.48 15.01 76.45 13.45 76.41 11.89C76.41 11.8 76.41 11.72 76.41 11.64C76.42 11.32 76.42 11.31 76.73 11.32C77.17 11.32 77.6 11.34 78.03 11.38C78.56 11.44 78.47 11.5 78.47 11.92C78.48 12.7 78.47 13.48 78.47 14.26ZM23.43 16.16C23.44 16.6 23.44 16.6 23.02 16.71C22.73 16.78 22.44 16.86 22.15 16.92C21.9 16.98 21.86 16.94 21.81 16.7C21.52 15.04 21.22 13.39 20.93 11.73C20.87 11.39 20.88 11.37 21.22 11.31C21.63 11.23 22.05 11.16 22.46 11.1C22.73 11.06 22.76 11.07 22.81 11.36C22.92 11.95 23.02 12.54 23.1 13.13C23.22 14.07 23.32 15.01 23.42 15.95C23.43 16.02 23.43 16.09 23.43 16.16ZM60.84 11.35C61.39 11.27 61.94 11.18 62.48 11.09C62.68 11.06 62.74 11.18 62.77 11.36C62.86 12.01 62.98 12.65 63.05 13.3C63.16 14.24 63.32 15.17 63.35 16.12C63.35 16.22 63.35 16.32 63.35 16.41C63.36 16.57 63.28 16.64 63.14 16.68C62.77 16.76 62.4 16.84 62.03 16.93C61.85 16.97 61.79 16.9 61.76 16.72C61.65 16.07 61.52 15.41 61.41 14.75C61.22 13.67 61.03 12.59 60.84 11.51C60.84 11.47 60.84 11.42 60.84 11.35ZM35.86 15.15C35.84 15.73 35.88 16.23 35.8 16.73C35.78 16.89 35.73 16.99 35.56 17.01C35.19 17.04 34.83 17.07 34.46 17.1C34.29 17.12 34.24 17.05 34.21 16.87C34.13 16.36 34.14 15.84 34.09 15.33C34 14.36 33.96 13.38 33.9 12.41C33.88 12.17 33.86 11.93 33.84 11.7C33.83 11.56 33.88 11.49 34.02 11.48C34.5 11.47 34.97 11.38 35.45 11.4C35.72 11.41 35.75 11.42 35.77 11.71C35.78 11.9 35.78 12.1 35.78 12.29L35.86 15.15ZM75.76 14.59C75.76 15.27 75.77 15.94 75.76 16.61C75.75 16.95 75.71 16.98 75.38 17.02C75.06 17.05 74.73 17.07 74.41 17.1C74.23 17.12 74.14 17.07 74.13 16.86C74.08 15.97 74.02 15.08 73.96 14.19C73.91 13.45 73.85 12.71 73.8 11.98C73.79 11.89 73.8 11.81 73.79 11.73C73.79 11.58 73.83 11.49 74 11.49C74.46 11.47 74.92 11.38 75.38 11.4C75.66 11.41 75.67 11.41 75.69 11.71C75.76 12.67 75.76 13.63 75.76 14.59ZM22.07 26.58C22.65 27.22 22.68 27.98 22.49 28.77C22.3 29.56 21.86 30.22 21.32 30.81C20.43 31.79 19.34 32.51 18.19 33.13C16.21 34.19 14.11 34.89 11.91 35.31C10.34 35.6 8.75 35.83 7.14 35.92C6.65 35.95 6.16 35.97 5.68 35.97C5.32 35.97 4.97 35.98 4.61 35.96C4.31 35.95 4.27 35.9 4.24 35.59C4.15 34.46 4.08 33.34 3.98 32.21C3.86 30.9 3.72 29.6 3.6 28.3C3.5 27.35 3.42 26.41 3.32 25.47C3.2 24.36 3.07 23.25 2.94 22.14C2.83 21.12 2.72 20.09 2.59 19.07C2.45 17.93 2.31 16.8 2.16 15.67C2.01 14.58 1.86 13.49 1.69 12.4C1.43 10.61 1.15 8.82 0.84 7.03C0.59 5.58 0.31 4.13 0.01 2.68C-0.03 2.49 0.03 2.41 0.2 2.34C1.82 1.67 3.44 0.98 5.07 0.3C5.37 0.17 5.68 0.07 6.01 0.01C6.23 -0.03 6.29 0.01 6.28 0.24C6.26 0.81 6.29 1.38 6.23 1.95C6.22 2.11 6.21 2.26 6.21 2.41C6.18 4.47 6.16 6.52 6.21 8.57C6.26 10.37 6.35 12.17 6.46 13.97C6.54 15.39 6.66 16.81 6.78 18.23C6.9 19.62 7.04 21 7.18 22.39C7.2 22.66 7.23 22.68 7.53 22.64C8.12 22.55 8.72 22.5 9.32 22.49C11.17 22.49 13 22.74 14.81 23.17C16.39 23.55 17.93 24.05 19.41 24.75C20.14 25.09 20.84 25.49 21.48 26C21.69 26.17 21.89 26.37 22.07 26.58ZM61.69 26.24C62.41 26.87 62.67 27.64 62.46 28.6C62.29 29.39 61.91 30.05 61.4 30.64C60.57 31.59 59.57 32.32 58.49 32.92C56.37 34.11 54.11 34.88 51.74 35.33C50.44 35.57 49.13 35.76 47.82 35.87C47.07 35.94 46.32 36.02 45.49 35.97L44.51 35.97C44.32 35.97 44.21 35.91 44.2 35.68C44.13 34.69 44.04 33.71 43.96 32.72C43.86 31.68 43.76 30.64 43.66 29.6C43.57 28.64 43.48 27.68 43.39 26.72C43.3 25.82 43.19 24.92 43.09 24.02C43 23.17 42.92 22.33 42.82 21.48C42.7 20.46 42.57 19.44 42.44 18.41C42.32 17.46 42.2 16.51 42.08 15.55C41.94 14.53 41.8 13.51 41.65 12.49C41.45 11.16 41.23 9.85 41.02 8.52C40.73 6.65 40.39 4.79 40 2.93C39.98 2.85 39.98 2.77 39.95 2.69C39.89 2.51 39.95 2.41 40.13 2.34C41.85 1.67 43.53 0.85 45.27 0.21C45.5 0.12 45.73 0.03 45.98 0C46.2 -0.02 46.26 0.02 46.23 0.25C46.12 1.53 46.18 2.82 46.12 4.1C46.07 5.15 46.08 6.2 46.13 7.24C46.14 7.51 46.15 7.78 46.15 8.04C46.14 9.3 46.21 10.55 46.27 11.81C46.35 13.47 46.47 15.12 46.59 16.78C46.68 17.98 46.8 19.17 46.91 20.36C46.97 21.02 47.04 21.67 47.12 22.32C47.16 22.68 47.18 22.68 47.53 22.64C48.15 22.55 48.77 22.48 49.4 22.49C51.6 22.52 53.76 22.87 55.88 23.47C57.31 23.88 58.71 24.39 60.03 25.1C60.62 25.42 61.18 25.8 61.69 26.24ZM10.83 32.43C11.65 32.05 15.6 28.96 15.92 28.45C14 27.63 12.07 26.86 10 26.23L10.83 32.43ZM55.74 28.65C55.84 28.55 55.83 28.46 55.69 28.4C55.42 28.28 55.14 28.14 54.87 28.03C53.39 27.42 51.91 26.84 50.39 26.36C50.25 26.32 50.12 26.23 49.95 26.31L50.77 32.41C50.89 32.43 50.94 32.38 50.99 32.34C52.37 31.33 53.76 30.32 55.09 29.23C55.31 29.05 55.54 28.87 55.74 28.65Z" fill="#333333" fill-opacity="1.000000" fill-rule="nonzero"/>
</svg>
