<svg width="36.000000" height="36.000000" viewBox="0 0 36 36" fill="none" xmlns="http://www.w3.org/2000/svg" xmlns:xlink="http://www.w3.org/1999/xlink">
	<desc>
			Created with Pixso.
	</desc>
	<defs/>
	<path id="gitee" d="M34.4 14.4L16 14.4C15.11 14.4 14.4 15.11 14.39 16L14.39 20C14.39 20.88 15.11 21.6 15.99 21.6L27.2 21.6C28.08 21.6 28.8 22.31 28.8 23.2L28.8 23.6L28.8 24C28.8 26.65 26.65 28.8 24 28.8L8.79 28.8C7.91 28.8 7.19 28.08 7.19 27.2L7.19 12C7.19 9.34 9.34 7.2 11.99 7.2L34.39 7.2C35.27 7.19 35.99 6.48 35.99 5.6L35.99 1.6C36 0.71 35.28 0 34.4 0L11.99 0C5.37 0 0 5.37 0 12L0 34.4C0 35.28 0.71 36 1.59 36L25.2 36C31.16 36 36 31.16 36 25.2L36 16C36 15.11 35.28 14.4 34.4 14.4Z" fill="#333333" fill-opacity="1.000000" fill-rule="evenodd"/>
	<path id="gitee" d="" fill="#333333" fill-opacity="0" fill-rule="evenodd"/>
</svg>
