<svg width="36.000000" height="36.000000" viewBox="0 0 36 36" fill="none" xmlns="http://www.w3.org/2000/svg" xmlns:xlink="http://www.w3.org/1999/xlink">
	<desc>
			Created with Pixso.
	</desc>
	<g clip-path="url(#clip6_20)">
		<path id="path" d="M18 3C9.71 3 3 9.71 3 18C3 26.28 9.71 33 18 33C26.28 33 33 26.28 33 18C33 9.71 26.28 3 18 3ZM0 18C0 8.05 8.05 0 18 0C27.94 0 36 8.05 36 18C36 27.94 27.94 36 18 36C8.05 36 0 27.94 0 18Z" fill="#333333" fill-opacity="1.000000" fill-rule="evenodd"/>
		<path id="path" d="M14.38 34.1C14.24 33.91 14.24 32.24 14.38 29.09C12.83 29.15 11.85 29.04 11.44 28.77C10.82 28.37 10.21 27.12 9.66 26.24C9.12 25.36 7.9 25.23 7.42 25.03C6.93 24.83 6.8 24.03 8.76 24.64C10.72 25.24 10.82 26.89 11.44 27.28C12.06 27.66 13.53 27.49 14.2 27.18C14.87 26.88 14.82 25.73 14.94 25.27C15.09 24.85 14.56 24.75 14.55 24.75C13.9 24.75 10.46 24 9.52 20.67C8.57 17.35 9.79 15.17 10.44 14.24C10.87 13.61 10.83 12.28 10.32 10.25C12.17 10.01 13.6 10.6 14.6 12C14.6 12 15.92 11.21 18 11.21C20.07 11.21 20.81 11.86 21.38 12C21.95 12.13 22.41 9.55 25.92 10.25C25.19 11.69 24.57 13.5 25.04 14.24C25.51 14.98 27.35 17.33 26.22 20.67C25.47 22.9 23.98 24.26 21.77 24.75C21.52 24.83 21.39 24.96 21.39 25.14C21.39 25.41 21.74 25.44 22.23 26.7C22.56 27.55 22.58 29.96 22.3 33.93C21.59 34.11 21.03 34.23 20.64 34.3C19.93 34.41 19.17 34.47 18.42 34.49C17.67 34.52 17.41 34.51 16.37 34.42C15.68 34.35 15.02 34.25 14.38 34.1Z" fill="#333333" fill-opacity="1.000000" fill-rule="evenodd"/>
	</g>
</svg>
