<svg width="36.000000" height="36.000000" viewBox="0 0 36 36" fill="none" xmlns="http://www.w3.org/2000/svg" xmlns:xlink="http://www.w3.org/1999/xlink">
	<desc>
			Created with Pixso.
	</desc>
	<defs>
		<clipPath id="clip6_25">
			<rect id="邮箱" width="36.000000" height="36.000000" fill="white" fill-opacity="0"/>
		</clipPath>
	</defs>
	<g clip-path="url(#clip6_25)">
		<path id="path" d="M3 29.25L33 29.25L33 18L33 6.75L18 6.75L3 6.75L3 18L3 29.25Z" fill="#000000" fill-opacity="0" fill-rule="nonzero"/>
		<path id="path" d="M33 29.25L33 18L33 6.75L18 6.75L3 6.75L3 18L3 29.25L33 29.25Z" stroke="#333333" stroke-opacity="1.000000" stroke-width="2.000000" stroke-linejoin="round"/>
		<path id="path" d="M2.42 7.54L2.39 7.55C1.95 7.21 1.86 6.59 2.2 6.14C2.53 5.7 3.15 5.61 3.6 5.95L3.6 5.97L2.42 7.54ZM32.39 5.97L32.4 5.95C32.84 5.61 33.46 5.7 33.8 6.14C34.13 6.59 34.04 7.21 33.59 7.55L33.57 7.54L32.39 5.97Z" fill="#000000" fill-opacity="0" fill-rule="nonzero"/>
		<path id="path" d="M3 6.75L18 18L33 6.75" stroke="#333333" stroke-opacity="1.000000" stroke-width="2.000000" stroke-linejoin="round" stroke-linecap="round"/>
		<path id="path" d="M17.98 5.77L18 5.75C18.56 5.75 19 6.19 19 6.75C19 7.31 18.56 7.75 18 7.75L17.98 7.73L17.98 5.77ZM3.98 17.98L4 18C4 18.56 3.56 19 3 19C2.44 19 2 18.56 2 18L2.01 17.98L3.98 17.98Z" fill="#000000" fill-opacity="0" fill-rule="nonzero"/>
		<path id="path" d="M18 6.75L3 6.75L3 18" stroke="#333333" stroke-opacity="1.000000" stroke-width="2.000000" stroke-linejoin="round" stroke-linecap="round"/>
		<path id="path" d="M33.98 17.98L34 18C34 18.56 33.56 19 33 19C32.43 19 32 18.56 32 18L32.02 17.98L33.98 17.98ZM18.02 7.73L18 7.75C17.44 7.75 17 7.31 17 6.75C17 6.19 17.44 5.75 18 5.75L18.02 5.77L18.02 7.73Z" fill="#000000" fill-opacity="0" fill-rule="nonzero"/>
		<path id="path" d="M33 18L33 6.75L18 6.75" stroke="#333333" stroke-opacity="1.000000" stroke-width="2.000000" stroke-linejoin="round" stroke-linecap="round"/>
	</g>
</svg>
