<svg width="34.5979" height="36.0000" viewBox="0 0 34.5979 36.0001" fill="none" xmlns="http://www.w3.org/2000/svg" xmlns:xlink="http://www.w3.org/1999/xlink">
	<desc>
			Created with Pixso.
	</desc>
	<defs/>
	<path id="qq" d="M31.53 27.16C30.96 26.45 30.54 25.85 30.54 25.85C30.54 26.95 30.22 28.22 29.55 29.47C29.34 29.86 29.1 30.23 28.83 30.61C28.22 31.45 27.45 32.25 26.49 32.97C26.48 32.98 26.46 32.99 26.44 33.01C26.82 33.11 27.33 33.26 27.86 33.45C28.5 33.68 29.16 33.96 29.62 34.28C30.13 34.63 30.4 35.02 30.12 35.43C29.93 35.7 28.84 35.86 27.34 35.94C26.9 35.96 26.44 35.97 25.95 35.98C22.85 36.04 18.91 35.87 17.29 35.71C15.68 35.87 11.74 36.04 8.64 35.98C8.15 35.97 7.69 35.96 7.25 35.94C5.75 35.86 4.66 35.7 4.47 35.43C4.19 35.02 4.46 34.63 4.97 34.28C5.43 33.96 6.09 33.68 6.73 33.45C7.25 33.26 7.77 33.11 8.15 33.01C8.13 32.99 8.11 32.98 8.1 32.97C7.14 32.25 6.36 31.45 5.75 30.61C5.48 30.23 5.25 29.86 5.04 29.47C4.37 28.22 4.04 26.95 4.04 25.85C4.04 25.85 3.62 26.45 3.06 27.16C2.94 27.31 2.82 27.46 2.7 27.61C2.3 28.09 1.87 28.57 1.48 28.94C1.06 29.33 0.69 29.58 0.44 29.56C0.15 29.53 -0.19 28.62 0.12 26.58C0.15 26.36 0.19 26.12 0.24 25.87C0.43 24.95 0.73 23.85 1.19 22.55C2.01 20.23 2.96 18.29 4.42 15.11C4.17 6.89 8.05 0 17.29 0C26.43 0 30.4 6.75 30.17 15.11C31.63 18.29 32.58 20.23 33.4 22.55C33.86 23.85 34.16 24.95 34.35 25.87C34.4 26.12 34.44 26.36 34.47 26.58C34.78 28.62 34.44 29.53 34.15 29.56C33.9 29.58 33.52 29.33 33.11 28.94C32.71 28.57 32.28 28.09 31.89 27.61C31.77 27.46 31.64 27.31 31.53 27.16ZM27.54 16.58L27.54 25.85C27.54 26.1 27.52 26.35 27.48 26.59C27.25 28.04 26.31 29.37 24.66 30.59L21.47 32.95C19.98 32.91 18.69 32.83 17.59 32.72L17.29 32.7L17 32.72C15.9 32.83 14.61 32.91 13.12 32.95L9.93 30.6C8.28 29.37 7.34 28.04 7.1 26.59C7.06 26.35 7.04 26.1 7.04 25.85L7.04 16.58C7.08 16.5 7.11 16.43 7.14 16.36L7.44 15.72L7.41 15.02C7.3 11.33 8.06 8.42 9.68 6.29C10.1 5.75 10.56 5.27 11.08 4.87C12.66 3.62 14.73 3 17.29 3C19.85 3 21.92 3.62 23.5 4.86C24.01 5.26 24.47 5.72 24.87 6.25C26.51 8.38 27.28 11.3 27.17 15.03L27.15 15.72L27.44 16.36C27.48 16.43 27.51 16.5 27.54 16.58Z" fill="#333" fill-opacity="1.333" fill-rule="evenodd"/>
</svg>
