<svg width="36.000000" height="36.000000" viewBox="0 0 36 36" fill="none" xmlns="http://www.w3.org/2000/svg" xmlns:xlink="http://www.w3.org/1999/xlink">
	<desc>
			Created with Pixso.
	</desc>
	<defs>
		<clipPath id="clip5_25">
			<rect id="Language (1)" width="36.000000" height="36.000000" fill="white" fill-opacity="0"/>
		</clipPath>
	</defs>
	<g clip-path="url(#clip5_25)">
		<path id="path" d="M33.63 30.48L27.3 15.15C27.24 15.01 27.16 14.88 27.07 14.76C26.97 14.65 26.86 14.54 26.73 14.46C26.6 14.37 26.47 14.31 26.32 14.26C26.17 14.22 26.02 14.2 25.87 14.2C25.72 14.2 25.57 14.22 25.42 14.26C25.27 14.31 25.14 14.37 25.01 14.46C24.88 14.54 24.77 14.65 24.67 14.76C24.58 14.88 24.5 15.01 24.44 15.15L18.11 30.48C18.07 30.58 18.04 30.67 18.02 30.77C18 30.87 17.99 30.97 17.99 31.08C17.99 31.18 18 31.28 18.02 31.38C18.04 31.48 18.07 31.58 18.11 31.67C18.15 31.76 18.2 31.85 18.25 31.94C18.31 32.02 18.37 32.1 18.44 32.17C18.52 32.25 18.6 32.31 18.68 32.37C18.76 32.42 18.85 32.47 18.95 32.51C19.04 32.55 19.14 32.58 19.24 32.6C19.34 32.62 19.44 32.63 19.54 32.63C19.64 32.63 19.75 32.62 19.85 32.6C19.94 32.58 20.04 32.55 20.14 32.51C20.23 32.47 20.32 32.42 20.4 32.36C20.49 32.31 20.57 32.24 20.64 32.17C20.71 32.1 20.77 32.02 20.83 31.93C20.89 31.85 20.93 31.76 20.97 31.66L22.26 28.54L29.48 28.54L30.77 31.66C30.83 31.8 30.9 31.93 31 32.05C31.1 32.17 31.21 32.27 31.34 32.36C31.46 32.44 31.6 32.51 31.75 32.55C31.9 32.6 32.04 32.62 32.2 32.62C32.33 32.62 32.45 32.6 32.57 32.57C32.7 32.54 32.81 32.5 32.93 32.44C33.04 32.38 33.14 32.3 33.24 32.22C33.33 32.13 33.41 32.04 33.48 31.93C33.55 31.83 33.61 31.71 33.65 31.59C33.7 31.48 33.72 31.35 33.74 31.23C33.75 31.1 33.75 30.97 33.73 30.85C33.71 30.72 33.68 30.6 33.63 30.48ZM23.54 25.45L25.87 19.8L28.2 25.45L23.54 25.45Z" fill="#333333" fill-opacity="1.000000" fill-rule="nonzero"/>
		<path id="path" d="M18.83 24.11C18.89 24.02 18.94 23.94 18.98 23.85C19.02 23.75 19.06 23.66 19.08 23.56C19.1 23.46 19.12 23.36 19.12 23.26C19.12 23.16 19.12 23.06 19.1 22.96C19.09 22.86 19.06 22.76 19.03 22.66C18.99 22.57 18.95 22.48 18.89 22.39C18.84 22.3 18.78 22.22 18.71 22.15C18.64 22.07 18.57 22.01 18.48 21.95C18.47 21.94 17.43 21.17 15.92 19.51C18.71 15.73 20.29 11.44 20.93 9.42L23.2 9.42C23.3 9.42 23.4 9.41 23.5 9.39C23.6 9.37 23.7 9.34 23.79 9.3C23.88 9.26 23.97 9.21 24.06 9.16C24.14 9.1 24.22 9.04 24.29 8.96C24.36 8.89 24.43 8.81 24.48 8.73C24.54 8.64 24.59 8.56 24.63 8.46C24.67 8.37 24.7 8.27 24.72 8.17C24.74 8.07 24.75 7.97 24.75 7.87C24.75 7.77 24.74 7.67 24.72 7.57C24.7 7.47 24.67 7.37 24.63 7.28C24.59 7.18 24.54 7.1 24.48 7.01C24.43 6.93 24.36 6.85 24.29 6.78C24.22 6.7 24.14 6.64 24.06 6.58C23.97 6.53 23.88 6.48 23.79 6.44C23.7 6.4 23.6 6.37 23.5 6.35C23.4 6.33 23.3 6.32 23.2 6.32L15.04 6.32L15.04 4.92C15.04 4.82 15.03 4.71 15.01 4.62C14.99 4.52 14.96 4.42 14.92 4.32C14.89 4.23 14.84 4.14 14.78 4.06C14.72 3.97 14.66 3.89 14.59 3.82C14.52 3.75 14.44 3.69 14.35 3.63C14.27 3.57 14.18 3.53 14.09 3.49C13.99 3.45 13.9 3.42 13.8 3.4C13.7 3.38 13.6 3.37 13.5 3.37C13.39 3.37 13.29 3.38 13.19 3.4C13.09 3.42 13 3.45 12.9 3.49C12.81 3.53 12.72 3.57 12.64 3.63C12.55 3.69 12.47 3.75 12.4 3.82C12.33 3.89 12.27 3.97 12.21 4.06C12.15 4.14 12.1 4.23 12.07 4.32C12.03 4.42 12 4.52 11.98 4.62C11.96 4.71 11.95 4.82 11.95 4.92L11.95 6.32L3.79 6.32C3.69 6.32 3.59 6.33 3.49 6.35C3.39 6.37 3.29 6.4 3.2 6.44C3.11 6.48 3.02 6.53 2.93 6.58C2.85 6.64 2.77 6.7 2.7 6.78C2.63 6.85 2.56 6.93 2.51 7.01C2.45 7.1 2.4 7.18 2.36 7.28C2.32 7.37 2.29 7.47 2.27 7.57C2.25 7.67 2.25 7.77 2.25 7.87C2.25 7.97 2.25 8.07 2.27 8.17C2.29 8.27 2.32 8.37 2.36 8.46C2.4 8.56 2.45 8.64 2.51 8.73C2.56 8.81 2.63 8.89 2.7 8.96C2.77 9.04 2.85 9.1 2.93 9.16C3.02 9.21 3.11 9.26 3.2 9.3C3.29 9.34 3.39 9.37 3.49 9.39C3.59 9.41 3.69 9.42 3.79 9.42L17.66 9.42C16.99 11.31 15.76 14.3 13.88 17.04C11.67 14.11 10.85 12.21 10.84 12.19C10.8 12.1 10.75 12.01 10.7 11.93C10.64 11.85 10.58 11.77 10.5 11.7C10.43 11.63 10.35 11.57 10.27 11.51C10.18 11.46 10.1 11.41 10 11.37C9.91 11.34 9.81 11.31 9.71 11.29C9.61 11.27 9.51 11.26 9.41 11.26C9.31 11.26 9.21 11.27 9.11 11.29C9.02 11.31 8.92 11.34 8.83 11.38C8.73 11.42 8.64 11.47 8.56 11.52C8.48 11.58 8.4 11.64 8.33 11.72C8.26 11.79 8.19 11.86 8.14 11.95C8.08 12.03 8.03 12.12 8 12.21C7.96 12.31 7.93 12.4 7.91 12.5C7.89 12.6 7.88 12.7 7.88 12.8C7.88 12.9 7.89 13 7.9 13.1C7.92 13.2 7.95 13.3 7.99 13.39C8.03 13.49 9.01 15.8 11.71 19.29C11.77 19.37 11.84 19.46 11.9 19.54C9.14 22.66 6.43 24.59 5.3 25.21C5.21 25.26 5.13 25.32 5.05 25.38C4.97 25.45 4.9 25.52 4.84 25.6C4.77 25.68 4.72 25.76 4.67 25.85C4.62 25.94 4.59 26.04 4.56 26.14C4.53 26.23 4.51 26.33 4.5 26.43C4.49 26.53 4.49 26.64 4.5 26.74C4.51 26.84 4.53 26.94 4.56 27.03C4.59 27.13 4.63 27.22 4.68 27.31C4.73 27.4 4.79 27.49 4.85 27.56C4.92 27.64 4.99 27.71 5.07 27.78C5.15 27.84 5.23 27.9 5.32 27.94C5.41 27.99 5.51 28.03 5.6 28.06C5.7 28.09 5.8 28.1 5.9 28.11C6 28.12 6.1 28.12 6.21 28.11C6.31 28.1 6.41 28.08 6.5 28.05C6.6 28.02 6.69 27.98 6.78 27.93C6.93 27.85 10.2 26.04 13.93 21.91C15.51 23.61 16.6 24.4 16.67 24.45C16.75 24.51 16.84 24.56 16.93 24.6C17.02 24.65 17.12 24.68 17.21 24.7C17.31 24.73 17.41 24.74 17.51 24.74C17.62 24.75 17.72 24.74 17.82 24.73C17.92 24.71 18.02 24.68 18.11 24.65C18.21 24.61 18.3 24.57 18.38 24.52C18.47 24.46 18.55 24.4 18.63 24.33C18.7 24.26 18.77 24.19 18.83 24.11Z" fill="#333333" fill-opacity="1.000000" fill-rule="nonzero"/>
	</g>
</svg>
